<svg width="20" height="21" viewBox="0 0 20 21" fill="none" xmlns="http://www.w3.org/2000/svg">
<path d="M18.6027 8.87153C18.0567 8.21352 17.2018 7.80477 16.3717 7.80477H14.1756C14.6698 7.01719 15.0418 6.22465 15.2685 5.46997C15.6144 4.31832 15.6023 3.31442 15.2334 2.56676C14.818 1.72465 13.9761 1.26086 12.863 1.26086C12.7392 1.26087 12.6182 1.29763 12.5153 1.36649C12.4125 1.43535 12.3324 1.53321 12.2852 1.64766C11.4185 3.74989 9.15777 6.77137 7.02781 8.7618C6.81047 8.00684 6.11395 7.45278 5.29 7.45278H2.61422C1.61699 7.45278 0.805664 8.26411 0.805664 9.26129V17.2162C0.805664 18.2134 1.61699 19.0248 2.61422 19.0248H5.29C5.90004 19.0248 6.44012 18.7208 6.76785 18.2568C7.26363 18.7338 7.9209 19.0248 8.64109 19.0248H15.3786C16.1235 19.0248 16.7868 18.7076 17.2968 18.1076C17.7173 17.613 18.0159 16.9447 18.1604 16.1752L19.1535 10.885C19.2867 10.1753 19.0911 9.4602 18.6027 8.87153ZM5.84852 17.2163C5.84852 17.5242 5.59797 17.7748 5.29 17.7748H2.61422C2.30625 17.7748 2.05566 17.5242 2.05566 17.2163V9.26133C2.05566 8.95336 2.30625 8.70282 2.61422 8.70282H5.29C5.59797 8.70282 5.84852 8.95336 5.84852 9.26133V17.2163ZM17.9249 10.6544L16.9319 15.9446C16.7658 16.8294 16.2705 17.7748 15.3786 17.7748H8.64105C7.79051 17.7748 7.09855 17.0055 7.09855 16.0599V10.3669C9.45445 8.4111 12.0929 5.05215 13.2576 2.54161C13.8791 2.64676 14.0498 2.99274 14.1125 3.11977C14.5181 3.94208 14.1814 5.83547 12.4837 8.04942C12.4127 8.14197 12.369 8.25255 12.3576 8.36863C12.3462 8.48471 12.3675 8.60167 12.4191 8.70628C12.4707 8.81088 12.5506 8.89896 12.6496 8.96054C12.7487 9.02212 12.863 9.05475 12.9796 9.05473H16.3717C16.8327 9.05473 17.3308 9.2961 17.6407 9.66965C17.8152 9.88004 18.0062 10.2216 17.9249 10.6544Z" fill="#52525B"/>
</svg>
