<svg width="20" height="21" viewBox="0 0 20 21" fill="none" xmlns="http://www.w3.org/2000/svg">
<path d="M1.39734 11.4141C1.94332 12.0721 2.79816 12.4809 3.62832 12.4809H5.82438C5.33016 13.2685 4.9582 14.061 4.73152 14.8157C4.38563 15.9673 4.39773 16.9712 4.76656 17.7189C5.18199 18.561 6.02387 19.0248 7.13699 19.0248C7.26078 19.0248 7.38178 18.988 7.48465 18.9192C7.58752 18.8503 7.66762 18.7524 7.7148 18.638C8.58152 16.5358 10.8422 13.5143 12.9722 11.5238C13.1895 12.2788 13.8861 12.8329 14.71 12.8329H17.3858C18.383 12.8329 19.1943 12.0215 19.1943 11.0244V3.06943C19.1943 2.0722 18.383 1.26087 17.3858 1.26087H14.71C14.1 1.26087 13.5599 1.56482 13.2321 2.02888C12.7364 1.55189 12.0791 1.26087 11.3589 1.26087H4.62137C3.87652 1.26087 3.21324 1.57802 2.70317 2.17802C2.2827 2.67267 1.98406 3.34091 1.83961 4.11048L0.846523 9.4006C0.713282 10.1104 0.908907 10.8254 1.39734 11.4141ZM14.1515 3.06939C14.1515 2.76142 14.402 2.51084 14.71 2.51084H17.3858C17.6937 2.51084 17.9443 2.76142 17.9443 3.06939V11.0243C17.9443 11.3323 17.6937 11.5828 17.3858 11.5828H14.71C14.402 11.5828 14.1515 11.3323 14.1515 11.0243V3.06939ZM2.07508 9.63123L3.06812 4.34107C3.23422 3.45627 3.72949 2.51084 4.62141 2.51084H11.3589C12.2095 2.51084 12.9014 3.28013 12.9014 4.22576V9.91877C10.5455 11.8745 7.90715 15.2335 6.74238 17.744C6.12094 17.6389 5.95023 17.2929 5.88754 17.1659C5.48188 16.3436 5.81855 14.4502 7.51633 12.2362C7.58732 12.1437 7.63099 12.0331 7.6424 11.917C7.65381 11.8009 7.63251 11.684 7.5809 11.5794C7.52929 11.4748 7.44944 11.3867 7.35038 11.3251C7.25131 11.2635 7.137 11.2309 7.02035 11.2309H3.62828C3.16734 11.2309 2.66922 10.9895 2.3593 10.616C2.1848 10.4056 1.99379 10.064 2.07508 9.63123Z" fill="#52525B"/>
</svg>
