<svg width="25" height="24" viewBox="0 0 25 24" fill="none" xmlns="http://www.w3.org/2000/svg">
<path fill-rule="evenodd" clip-rule="evenodd" d="M17.0139 21.5H8.66604C5.59968 21.5 3.24727 20.3925 3.91547 15.9348L4.6935 9.89363C5.1054 7.66937 6.52416 6.81812 7.76901 6.81812H17.9475C19.2107 6.81812 20.547 7.73345 21.023 9.89363L21.8011 15.9348C22.3686 19.8891 20.0802 21.5 17.0139 21.5Z" stroke="white" stroke-width="1.5" stroke-linecap="round" stroke-linejoin="round"/>
<path d="M17.1512 6.59842C17.1512 4.21235 15.2169 2.27805 12.8309 2.27805V2.27805C11.6819 2.27319 10.5782 2.72622 9.76406 3.53697C8.94987 4.34772 8.49218 5.44941 8.49219 6.59842V6.59842" stroke="white" stroke-width="1.5" stroke-linecap="round" stroke-linejoin="round"/>
<path d="M15.7965 11.1018H15.7507" stroke="white" stroke-width="1.5" stroke-linecap="round" stroke-linejoin="round"/>
<path d="M9.9659 11.1018H9.92013" stroke="white" stroke-width="1.5" stroke-linecap="round" stroke-linejoin="round"/>
</svg>
