<svg width="24" height="25" viewBox="0 0 24 25" fill="none" xmlns="http://www.w3.org/2000/svg">
<g clip-path="url(#clip0_182_16128)">
<path d="M19 8.95232V7.52832C19 5.6718 18.2625 3.89133 16.9497 2.57857C15.637 1.26582 13.8565 0.52832 12 0.52832C10.1435 0.52832 8.36301 1.26582 7.05025 2.57857C5.7375 3.89133 5 5.6718 5 7.52832V8.95232C4.10936 9.34103 3.35129 9.98084 2.8185 10.7935C2.28571 11.6062 2.00128 12.5566 2 13.5283V19.5283C2.00159 20.8539 2.52888 22.1248 3.46622 23.0621C4.40356 23.9994 5.67441 24.5267 7 24.5283H17C18.3256 24.5267 19.5964 23.9994 20.5338 23.0621C21.4711 22.1248 21.9984 20.8539 22 19.5283V13.5283C21.9987 12.5566 21.7143 11.6062 21.1815 10.7935C20.6487 9.98084 19.8906 9.34103 19 8.95232ZM7 7.52832C7 6.20224 7.52678 4.93047 8.46447 3.99279C9.40215 3.0551 10.6739 2.52832 12 2.52832C13.3261 2.52832 14.5979 3.0551 15.5355 3.99279C16.4732 4.93047 17 6.20224 17 7.52832V8.52832H7V7.52832ZM20 19.5283C20 20.324 19.6839 21.087 19.1213 21.6496C18.5587 22.2122 17.7956 22.5283 17 22.5283H7C6.20435 22.5283 5.44129 22.2122 4.87868 21.6496C4.31607 21.087 4 20.324 4 19.5283V13.5283C4 12.7327 4.31607 11.9696 4.87868 11.407C5.44129 10.8444 6.20435 10.5283 7 10.5283H17C17.7956 10.5283 18.5587 10.8444 19.1213 11.407C19.6839 11.9696 20 12.7327 20 13.5283V19.5283Z" fill="#1B864C"/>
<path d="M12 14.5283C11.7348 14.5283 11.4804 14.6337 11.2929 14.8212C11.1054 15.0088 11 15.2631 11 15.5283V17.5283C11 17.7935 11.1054 18.0479 11.2929 18.2354C11.4804 18.423 11.7348 18.5283 12 18.5283C12.2652 18.5283 12.5196 18.423 12.7071 18.2354C12.8946 18.0479 13 17.7935 13 17.5283V15.5283C13 15.2631 12.8946 15.0088 12.7071 14.8212C12.5196 14.6337 12.2652 14.5283 12 14.5283Z" fill="#5D5FEF"/>
</g>
<defs>
<clipPath id="clip0_182_16128">
<rect width="24" height="24" fill="white" transform="translate(0 0.52832)"/>
</clipPath>
</defs>
</svg>
