<svg width="32" height="33" viewBox="0 0 32 33" fill="none" xmlns="http://www.w3.org/2000/svg">
<g clip-path="url(#clip0_182_16783)">
<path d="M16 0.13208C7.16344 0.13208 0 7.29552 0 16.1321C0 24.9686 7.16344 32.1321 16 32.1321C24.8366 32.1321 32 24.9686 32 16.1321C31.9904 7.29945 24.8326 0.141643 16 0.13208ZM21.3333 19.5814C21.8751 20.0801 21.9101 20.9236 21.4114 21.4654C20.9128 22.0072 20.0693 22.0422 19.5274 21.5435C19.5003 21.5186 19.4743 21.4925 19.4493 21.4654L16 18.0174L12.552 21.4654C12.0223 21.977 11.1783 21.9623 10.6667 21.4326C10.1677 20.9159 10.1677 20.0968 10.6667 19.5801L14.1147 16.1321L10.6667 12.6841C10.1551 12.1544 10.1698 11.3103 10.6995 10.7988C11.2162 10.2998 12.0353 10.2998 12.552 10.7988L16 14.2468L19.4493 10.7988C19.948 10.257 20.7915 10.222 21.3333 10.7206C21.8751 11.2193 21.9101 12.0628 21.4114 12.6046C21.3865 12.6318 21.3604 12.6578 21.3333 12.6828L17.8853 16.1321L21.3333 19.5814Z" fill="#CC3333"/>
</g>
<defs>
<clipPath id="clip0_182_16783">
<rect width="32" height="32" fill="white" transform="translate(0 0.13208)"/>
</clipPath>
</defs>
</svg>
